<svg width="24" height="24" viewBox="0 0 24 24" fill="none" xmlns="http://www.w3.org/2000/svg">
<path d="M12 11C13.105 11 14 10.105 14 9C14 7.895 13.105 7 12 7C10.895 7 10 7.895 10 9C10 10.105 10.895 11 12 11Z" stroke="#7F8080" strokeWidth="2" strokeLinecap="round" strokeLinejoin="round"/>
<path d="M12 21C12 21 19 16.154 19 9.923C18.998 8.083 18.26 6.32 16.95 5.028C15.631 3.727 13.853 2.998 12 3C10.147 2.998 8.369 3.727 7.05 5.028C5.74 6.32 5.002 8.083 5 9.923C5 16.153 12 21 12 21Z" stroke="#7F8080" stroke-width="2" strokeLinecap="round" strokeLinejoin="round"/>
</svg>
